<?xml version="1.0" encoding="UTF-8" standalone="no"?>
<!-- Generator: Adobe Illustrator 24.3.0, SVG Export Plug-In . SVG Version: 6.00 Build 0)  -->

<svg
   version="1.1"
   id="Layer_1"
   x="0px"
   y="0px"
   viewBox="0 0 47.419998 47.409999"
   xml:space="preserve"
   sodipodi:docname="hvit logo.svg"
   width="47.419998"
   height="47.41"
   inkscape:version="1.3.2 (091e20e, 2023-11-25, custom)"
   inkscape:export-filename="hvit logo.png"
   inkscape:export-xdpi="404.89246"
   inkscape:export-ydpi="404.89246"
   xmlns:inkscape="http://www.inkscape.org/namespaces/inkscape"
   xmlns:sodipodi="http://sodipodi.sourceforge.net/DTD/sodipodi-0.dtd"
   xmlns="http://www.w3.org/2000/svg"
   xmlns:svg="http://www.w3.org/2000/svg"><defs
   id="defs3" /><sodipodi:namedview
   id="namedview3"
   pagecolor="#686868"
   bordercolor="#000000"
   borderopacity="0.25"
   inkscape:showpageshadow="2"
   inkscape:pageopacity="0.0"
   inkscape:pagecheckerboard="0"
   inkscape:deskcolor="#d1d1d1"
   inkscape:zoom="7.3965192"
   inkscape:cx="23.659778"
   inkscape:cy="26.836948"
   inkscape:window-width="1920"
   inkscape:window-height="1009"
   inkscape:window-x="1912"
   inkscape:window-y="-8"
   inkscape:window-maximized="1"
   inkscape:current-layer="Layer_1" />


<path
   d="M 38.77,18.61 H 38.4 c -2.74,0.01 -3.25,0.3 -3.58,1.86 -0.39,1.82 -0.02,1.88 2.83,2.06 4.52,0.28 5.72,0.51 4.92,4.3 -0.19,0.9 -0.44,1.62 -0.74,2.2 -1.05,2 -2.82,2.31 -5.54,2.34 -0.16,0 -0.32,0 -0.49,0 -0.36,0 -0.72,0 -1.08,0 l -18.27,-0.12 0.47,-2.22 1.99,-9.36 h 2.86 l -1.99,9.35 h 16.42 0.1 0.03 c 2.57,0 3.03,-0.48 3.39,-2.2 0.45,-2.12 -0.74,-1.84 -2.93,-1.96 -3.17,-0.2 -5.74,-0.08 -4.82,-4.4 0.16,-0.75 0.38,-1.36 0.65,-1.86 1.11,-2.07 3.11,-2.31 5.68,-2.34 0.23,0 0.47,0 0.72,0 0.22,0 0.43,0 0.64,0 h 6.58 C 43.1,6.82 34.21,0 23.71,0 10.61,0 0,10.62 0,23.71 c 0,1.83 0.22,3.62 0.61,5.33 h 8.62 0.1 0.03 c 2.57,0 3.03,-0.48 3.39,-2.2 C 13.2,24.72 12.01,25 9.82,24.88 6.65,24.68 4.08,24.8 5,20.48 c 0.16,-0.75 0.38,-1.36 0.65,-1.86 1.11,-2.07 3.11,-2.31 5.68,-2.34 0.24,0 0.47,0 0.72,0 0.22,0 0.43,0 0.64,0 h -1.36 l 14.85,0.12 c 2.81,0 4.19,0.48 4.44,2.22 0.11,0.73 0.02,1.67 -0.24,2.9 -0.9,4.2 -2.46,4.94 -6.35,4.94 H 21.22 L 21.72,24 h 2.84 c 2.05,-0.04 2.53,-0.42 2.97,-2.5 0.45,-2.1 0.28,-2.7 -1.87,-2.68 L 11.81,18.6 h -0.37 c -2.73,0.01 -3.24,0.3 -3.58,1.86 -0.39,1.82 -0.02,1.88 2.83,2.06 4.52,0.28 5.72,0.51 4.92,4.3 -0.19,0.9 -0.44,1.62 -0.74,2.2 -1.05,2 -2.82,2.31 -5.55,2.34 -0.16,0 -0.32,0 -0.49,0 -0.36,0 -0.72,0 -1.08,0 H 1.27 c 3.19,9.33 12.03,16.05 22.44,16.05 13.1,0 23.71,-10.62 23.71,-23.71 0,-1.75 -0.2,-3.46 -0.56,-5.1 h -8.09 z"
   id="path3"
   inkscape:label="path3"
   style="display:inline;fill:#fafafa;fill-opacity:1" />
</svg>
