<?xml version="1.0" encoding="utf-8"?>
<!-- Generator: Adobe Illustrator 24.3.0, SVG Export Plug-In . SVG Version: 6.00 Build 0)  -->
<svg version="1.1" id="Layer_1" xmlns="http://www.w3.org/2000/svg" xmlns:xlink="http://www.w3.org/1999/xlink" x="0px" y="0px"
	 viewBox="0 0 170.08 85.04" style="enable-background:new 0 0 170.08 85.04;" xml:space="preserve">
<path d="M141.76,76.72c-0.43-0.43-0.87-0.56-1.45-0.56c-0.7,0-1.36,0.31-1.69,0.81v-0.74h-0.88v6.03h0.88v-3.7
	c0-0.92,0.56-1.62,1.45-1.62c0.47,0,0.71,0.11,1.04,0.44L141.76,76.72z M134.97,78.82h-3.19c0.02-0.49,0.05-0.67,0.18-1.01
	c0.23-0.55,0.77-0.91,1.41-0.91s1.18,0.36,1.41,0.91C134.92,78.15,134.95,78.33,134.97,78.82 M135.86,79.48v-0.4
	c0-1.79-0.92-2.92-2.48-2.92c-1.53,0-2.48,1.14-2.48,3.09c0,2.14,1.04,3.09,2.64,3.09c1.03,0,1.6-0.32,2.21-0.93l-0.6-0.53
	c-0.48,0.48-0.88,0.69-1.58,0.69c-1.15,0-1.78-0.76-1.78-2.09H135.86z M129.58,82.27v-0.76h-0.47c-0.56,0-0.82-0.33-0.82-0.88v-3.68
	h1.29v-0.67h-1.29v-1.89h-0.88v1.89h-0.76v0.67h0.76v3.71c0,0.9,0.51,1.62,1.54,1.62H129.58z M124.5,78.82h-3.19
	c0.03-0.49,0.05-0.67,0.18-1.01c0.23-0.55,0.77-0.91,1.41-0.91s1.18,0.36,1.41,0.91C124.45,78.15,124.47,78.33,124.5,78.82
	 M125.38,79.48v-0.4c0-1.79-0.92-2.92-2.48-2.92c-1.53,0-2.48,1.14-2.48,3.09c0,2.14,1.04,3.09,2.64,3.09c1.03,0,1.6-0.32,2.21-0.93
	l-0.6-0.53c-0.48,0.48-0.88,0.69-1.58,0.69c-1.15,0-1.78-0.76-1.78-2.09H125.38z M118.61,82.27v-3.88c0-1.36-0.81-2.23-2.17-2.23
	c-0.68,0-1.25,0.23-1.69,0.73v-3.36h-0.88v8.73h0.88v-3.73c0-1.04,0.6-1.6,1.51-1.6c0.91,0,1.47,0.54,1.47,1.6v3.73H118.61z
	 M110.77,79.21c0,1.13-0.19,2.26-1.5,2.26c-1.31,0-1.51-1.13-1.51-2.26c0-1.13,0.2-2.26,1.51-2.26
	C110.58,76.94,110.77,78.07,110.77,79.21 M111.65,82.46v-6.23h-0.87v0.71c-0.49-0.64-1.03-0.78-1.69-0.78
	c-0.61,0-1.15,0.21-1.47,0.53c-0.6,0.6-0.74,1.54-0.74,2.52c0,0.98,0.13,1.92,0.74,2.52c0.32,0.32,0.85,0.54,1.46,0.54
	c0.65,0,1.2-0.16,1.69-0.78v0.94c0,1.03-0.49,1.84-1.66,1.84c-0.7,0-1.01-0.21-1.45-0.6l-0.58,0.56c0.64,0.57,1.14,0.81,2.05,0.81
	C110.72,85.04,111.65,83.95,111.65,82.46 M105.04,73.53h-0.99v0.99h0.99V73.53z M104.98,76.23h-0.88v6.03h0.88V76.23z M102.6,82.27
	v-0.76h-0.48c-0.61,0-0.81-0.29-0.81-0.88v-7.09h-0.88v7.13c0,0.92,0.48,1.61,1.53,1.61H102.6z M98.24,82.27v-6.03h-0.88v3.72
	c0,1.06-0.6,1.61-1.51,1.61c-0.91,0-1.47-0.54-1.47-1.61v-3.72h-0.88v3.85c0,0.7,0.18,1.28,0.61,1.69c0.37,0.37,0.91,0.56,1.56,0.56
	c0.68,0,1.28-0.26,1.71-0.75v0.67H98.24z M91.41,82.27V78.4c0-0.7-0.22-1.26-0.65-1.68c-0.37-0.35-0.91-0.56-1.56-0.56
	c-0.85,0-1.52,0.34-1.99,1c-0.37-0.66-1.02-1-1.85-1c-0.68,0-1.28,0.24-1.71,0.73v-0.66h-0.88v6.03h0.88v-3.72
	c0-1.06,0.6-1.61,1.51-1.61c0.91,0,1.49,0.54,1.49,1.61v3.72h0.88v-3.82c0-0.96,0.63-1.51,1.51-1.51c0.91,0,1.49,0.54,1.49,1.61
	v3.72H91.41z M78.57,76.72c-0.43-0.43-0.87-0.56-1.45-0.56c-0.7,0-1.36,0.31-1.69,0.81v-0.74h-0.88v6.03h0.88v-3.7
	c0-0.92,0.56-1.62,1.45-1.62c0.47,0,0.71,0.11,1.04,0.44L78.57,76.72z M71.79,78.82H68.6c0.02-0.49,0.05-0.67,0.18-1.01
	c0.23-0.55,0.77-0.91,1.41-0.91c0.64,0,1.18,0.36,1.41,0.91C71.74,78.15,71.76,78.33,71.79,78.82 M72.67,79.48v-0.4
	c0-1.79-0.92-2.92-2.48-2.92c-1.53,0-2.48,1.14-2.48,3.09c0,2.14,1.04,3.09,2.64,3.09c1.03,0,1.6-0.32,2.21-0.93l-0.6-0.53
	c-0.48,0.48-0.88,0.69-1.58,0.69c-1.15,0-1.78-0.76-1.78-2.09H72.67z M65.27,79.25c0,1.18-0.2,2.31-1.51,2.31
	c-1.31,0-1.52-1.13-1.52-2.31c0-1.18,0.21-2.31,1.52-2.31C65.08,76.94,65.27,78.07,65.27,79.25 M66.16,79.25
	c0-0.94-0.12-1.95-0.74-2.56c-0.32-0.32-0.86-0.53-1.47-0.53c-0.66,0-1.22,0.15-1.71,0.78v-0.71h-0.88v8.73h0.88v-3.41
	c0.49,0.62,1.04,0.78,1.71,0.78c0.61,0,1.15-0.21,1.47-0.53C66.03,81.2,66.16,80.19,66.16,79.25 M58.33,80.13
	c0,0.5-0.1,0.85-0.31,1.04c-0.38,0.37-0.83,0.41-1.35,0.41c-0.96,0-1.39-0.33-1.39-1.03c0-0.7,0.44-1.07,1.35-1.07h1.69V80.13z
	 M59.21,82.27v-4.1c0-1.31-0.8-2.01-2.42-2.01c-0.98,0-1.6,0.2-2.13,0.89l0.6,0.55c0.36-0.5,0.75-0.69,1.52-0.69
	c1.1,0,1.55,0.44,1.55,1.33v0.58h-1.82c-1.35,0-2.08,0.69-2.08,1.74c0,0.48,0.16,0.93,0.45,1.23c0.38,0.39,0.87,0.55,1.71,0.55
	c0.81,0,1.25-0.16,1.74-0.65v0.57H59.21z M53.4,82.27l-2.41-3.73l2.05-2.31h-1.1l-2.72,3.14v-5.84h-0.88v8.73h0.88v-1.74l1.18-1.35
	l1.91,3.09H53.4z M46.6,80.5c0-1.13-0.72-1.53-1.78-1.63l-0.97-0.09c-0.76-0.06-1.06-0.37-1.06-0.88c0-0.61,0.47-1,1.35-1
	c0.63,0,1.18,0.15,1.61,0.48l0.58-0.58c-0.54-0.44-1.31-0.65-2.17-0.65c-1.29,0-2.22,0.66-2.22,1.76c0,0.99,0.62,1.52,1.8,1.62
	l0.99,0.09c0.7,0.06,1.01,0.36,1.01,0.88c0,0.71-0.61,1.07-1.61,1.07c-0.75,0-1.4-0.2-1.88-0.7l-0.59,0.59
	c0.66,0.64,1.46,0.87,2.48,0.87C45.61,82.34,46.6,81.67,46.6,80.5 M37.03,73.53h-0.99v0.99h0.99V73.53z M36.97,76.23h-0.88v6.03
	h0.88V76.23z M34.88,73.53H33.9l-2.27,7.07l-2.27-7.07h-0.98l2.87,8.73h0.76L34.88,73.53z"/>
<path d="M165.39,62.53h-4.64c0.04-0.71,0.07-0.98,0.27-1.46c0.34-0.8,1.12-1.32,2.05-1.32c0.93,0,1.71,0.52,2.05,1.32
	C165.32,61.55,165.36,61.82,165.39,62.53 M166.68,63.49V62.9c0-2.61-1.34-4.25-3.6-4.25c-2.23,0-3.6,1.66-3.6,4.5
	c0,3.1,1.52,4.5,3.84,4.5c1.5,0,2.32-0.46,3.21-1.36l-0.88-0.77c-0.7,0.7-1.29,1-2.3,1c-1.68,0-2.59-1.11-2.59-3.03H166.68z
	 M157.77,66.35l-0.87-0.84c-0.66,0.73-1.18,1-2.02,1c-0.86,0-1.57-0.34-2.03-1c-0.41-0.57-0.57-1.25-0.57-2.35
	c0-1.11,0.16-1.78,0.57-2.36c0.46-0.66,1.18-1,2.03-1c0.84,0,1.36,0.25,2.02,0.98l0.87-0.82c-0.91-0.98-1.68-1.3-2.89-1.3
	c-2.21,0-3.89,1.5-3.89,4.5c0,3,1.68,4.5,3.89,4.5C156.09,67.65,156.86,67.33,157.77,66.35 M148.33,54.82h-1.45v1.45h1.45V54.82z
	 M148.24,58.76h-1.29v8.78h1.29V58.76z M145.15,58.76h-1.39l-2.41,7.05l-2.39-7.05h-1.39l3.21,8.78h1.14L145.15,58.76z
	 M137.32,59.48c-0.62-0.62-1.27-0.82-2.11-0.82c-1.02,0-1.98,0.45-2.46,1.18v-1.07h-1.28v8.78h1.28v-5.39
	c0-1.34,0.82-2.35,2.11-2.35c0.68,0,1.04,0.16,1.52,0.64L137.32,59.48z M127.45,62.53h-4.64c0.04-0.71,0.07-0.98,0.27-1.46
	c0.34-0.8,1.12-1.32,2.05-1.32s1.71,0.52,2.05,1.32C127.38,61.55,127.42,61.82,127.45,62.53 M128.74,63.49V62.9
	c0-2.61-1.34-4.25-3.6-4.25c-2.23,0-3.61,1.66-3.61,4.5c0,3.1,1.52,4.5,3.84,4.5c1.5,0,2.32-0.46,3.21-1.36l-0.88-0.77
	c-0.7,0.7-1.29,1-2.3,1c-1.68,0-2.59-1.11-2.59-3.03H128.74z M119.4,64.05c0-1.05-0.38-1.93-1.07-2.52
	c-0.53-0.46-1.12-0.71-2.32-0.89l-1.39-0.21c-0.66-0.11-1.32-0.36-1.71-0.7c-0.39-0.34-0.57-0.84-0.57-1.46
	c0-1.41,0.98-2.36,2.68-2.36c1.34,0,2.18,0.38,2.96,1.09l0.87-0.88c-1.09-0.98-2.16-1.39-3.78-1.39c-2.52,0-4.07,1.43-4.07,3.59
	c0,1.02,0.32,1.8,0.96,2.37c0.55,0.48,1.34,0.8,2.34,0.96l1.48,0.23c0.93,0.14,1.25,0.25,1.66,0.61c0.41,0.36,0.61,0.93,0.61,1.59
	c0,1.48-1.14,2.36-3,2.36c-1.43,0-2.41-0.34-3.46-1.39l-0.93,0.93c1.2,1.2,2.44,1.68,4.35,1.68
	C117.65,67.65,119.4,66.28,119.4,64.05 M108.55,62.14h-4.89v1.2h4.89V62.14z M99.88,63.15c0,0.98-0.05,2.07-0.7,2.71
	c-0.41,0.41-0.98,0.64-1.61,0.64s-1.18-0.23-1.59-0.64c-0.64-0.64-0.71-1.73-0.71-2.71c0-0.98,0.07-2.07,0.71-2.71
	c0.41-0.41,0.96-0.64,1.59-0.64s1.2,0.23,1.61,0.64C99.83,61.08,99.88,62.17,99.88,63.15 M101.16,63.15c0-1.36-0.18-2.59-1.07-3.5
	c-0.61-0.61-1.44-1-2.52-1s-1.91,0.39-2.52,1c-0.89,0.91-1.07,2.14-1.07,3.5c0,1.36,0.18,2.59,1.07,3.5c0.61,0.61,1.44,1,2.52,1
	s1.91-0.39,2.52-1C100.99,65.74,101.16,64.51,101.16,63.15 M93.4,59.48c-0.62-0.62-1.27-0.82-2.11-0.82c-1.02,0-1.98,0.45-2.46,1.18
	v-1.07h-1.28v8.78h1.28v-5.39c0-1.34,0.82-2.35,2.11-2.35c0.68,0,1.03,0.16,1.52,0.64L93.4,59.48z M83.84,58.57
	c0,1.68-1.11,2.53-2.69,2.53h-3.25v-5.05h3.25C82.73,56.05,83.84,56.89,83.84,58.57 M85.19,58.57c0-2.28-1.61-3.73-3.93-3.73h-4.73
	v12.71h1.36v-5.23h3.37C83.59,62.32,85.19,60.85,85.19,58.57 M69.34,64.97c0-1.64-1.05-2.23-2.59-2.37l-1.41-0.12
	c-1.11-0.09-1.53-0.54-1.53-1.28c0-0.89,0.68-1.45,1.96-1.45c0.91,0,1.71,0.21,2.34,0.7l0.84-0.84c-0.78-0.64-1.91-0.95-3.16-0.95
	c-1.87,0-3.23,0.96-3.23,2.57c0,1.45,0.91,2.21,2.62,2.36l1.44,0.12c1.02,0.09,1.46,0.52,1.46,1.29c0,1.03-0.89,1.55-2.34,1.55
	c-1.09,0-2.03-0.29-2.73-1.02l-0.86,0.86c0.96,0.93,2.12,1.27,3.6,1.27C67.9,67.65,69.34,66.67,69.34,64.97 M58.99,62.53h-4.64
	c0.04-0.71,0.07-0.98,0.27-1.46c0.34-0.8,1.12-1.32,2.05-1.32c0.93,0,1.71,0.52,2.05,1.32C58.92,61.55,58.96,61.82,58.99,62.53
	 M60.28,63.49V62.9c0-2.61-1.34-4.25-3.6-4.25c-2.23,0-3.61,1.66-3.61,4.5c0,3.1,1.52,4.5,3.84,4.5c1.5,0,2.32-0.46,3.21-1.36
	l-0.88-0.77c-0.7,0.7-1.28,1-2.3,1c-1.68,0-2.59-1.11-2.59-3.03H60.28z M50.43,67.54v-5.62c0-1.02-0.28-1.84-0.91-2.44
	c-0.53-0.54-1.3-0.82-2.25-0.82c-0.98,0-1.84,0.36-2.46,1.07v-0.96h-1.28v8.78h1.28v-5.41c0-1.53,0.86-2.34,2.18-2.34
	s2.16,0.78,2.16,2.34v5.41H50.43z M39.02,63.15c0,1.71-0.29,3.35-2.19,3.35c-1.91,0-2.21-1.64-2.21-3.35c0-1.71,0.3-3.35,2.21-3.35
	C38.74,59.8,39.02,61.44,39.02,63.15 M40.31,67.54V54.84h-1.28v4.94c-0.71-0.91-1.52-1.12-2.48-1.12c-0.89,0-1.68,0.3-2.14,0.77
	c-0.89,0.89-1.07,2.36-1.07,3.73c0,1.37,0.18,2.84,1.07,3.73c0.46,0.46,1.25,0.77,2.14,0.77c0.96,0,1.78-0.23,2.5-1.16v1.05H40.31z
	 M30.67,67.54v-5.62c0-1.02-0.29-1.84-0.91-2.44c-0.54-0.54-1.3-0.82-2.25-0.82c-0.98,0-1.84,0.36-2.46,1.07v-0.96h-1.28v8.78h1.28
	v-5.41c0-1.53,0.86-2.34,2.18-2.34c1.32,0,2.16,0.78,2.16,2.34v5.41H30.67z M19.36,64.44c0,0.73-0.14,1.23-0.45,1.52
	c-0.55,0.54-1.21,0.59-1.96,0.59c-1.39,0-2.02-0.48-2.02-1.5c0-1.02,0.64-1.55,1.96-1.55h2.46V64.44z M20.64,67.54v-5.96
	c0-1.91-1.16-2.93-3.52-2.93c-1.43,0-2.32,0.29-3.1,1.3l0.87,0.8c0.52-0.73,1.09-1,2.21-1c1.61,0,2.25,0.64,2.25,1.93v0.84h-2.64
	c-1.96,0-3.03,1-3.03,2.53c0,0.7,0.23,1.36,0.66,1.78c0.55,0.57,1.27,0.8,2.48,0.8c1.18,0,1.82-0.23,2.53-0.95v0.84H20.64z
	 M11.77,64.05c0-1.05-0.38-1.93-1.07-2.52c-0.53-0.46-1.12-0.71-2.32-0.89l-1.39-0.21c-0.66-0.11-1.32-0.36-1.71-0.7
	c-0.39-0.34-0.57-0.84-0.57-1.46c0-1.41,0.98-2.36,2.68-2.36c1.34,0,2.18,0.38,2.96,1.09l0.88-0.88c-1.09-0.98-2.16-1.39-3.78-1.39
	c-2.52,0-4.07,1.43-4.07,3.59c0,1.02,0.32,1.8,0.96,2.37c0.55,0.48,1.34,0.8,2.34,0.96l1.48,0.23c0.93,0.14,1.25,0.25,1.66,0.61
	c0.41,0.36,0.61,0.93,0.61,1.59c0,1.48-1.14,2.36-3,2.36c-1.43,0-2.41-0.34-3.46-1.39l-0.93,0.93c1.2,1.2,2.44,1.68,4.36,1.68
	C10.02,67.65,11.77,66.28,11.77,64.05"/>
<path d="M100.1,18.61h-0.37c-2.74,0.01-3.25,0.3-3.58,1.86c-0.39,1.82-0.02,1.88,2.83,2.06c4.52,0.28,5.72,0.51,4.92,4.3
	c-0.19,0.9-0.44,1.62-0.74,2.2c-1.05,2-2.82,2.31-5.54,2.34c-0.16,0-0.32,0-0.49,0c-0.36,0-0.72,0-1.08,0l-18.27-0.12l0.47-2.22
	l1.99-9.36l2.86,0l-1.99,9.35h16.42h0.1h0.03c2.57,0,3.03-0.48,3.39-2.2c0.45-2.12-0.74-1.84-2.93-1.96
	c-3.17-0.2-5.74-0.08-4.82-4.4c0.16-0.75,0.38-1.36,0.65-1.86c1.11-2.07,3.11-2.31,5.68-2.34c0.23,0,0.47,0,0.72,0
	c0.22,0,0.43,0,0.64,0h6.58C104.43,6.82,95.54,0,85.04,0C71.94,0,61.33,10.62,61.33,23.71c0,1.83,0.22,3.62,0.61,5.33h8.62h0.1h0.03
	c2.57,0,3.03-0.48,3.39-2.2c0.45-2.12-0.74-1.84-2.93-1.96c-3.17-0.2-5.74-0.08-4.82-4.4c0.16-0.75,0.38-1.36,0.65-1.86
	c1.11-2.07,3.11-2.31,5.68-2.34c0.24,0,0.47,0,0.72,0c0.22,0,0.43,0,0.64,0h-1.36l14.85,0.12c2.81,0,4.19,0.48,4.44,2.22
	c0.11,0.73,0.02,1.67-0.24,2.9c-0.9,4.2-2.46,4.94-6.35,4.94h-2.81L83.05,24h2.84c2.05-0.04,2.53-0.42,2.97-2.5
	c0.45-2.1,0.28-2.7-1.87-2.68l-13.85-0.22h-0.37c-2.73,0.01-3.24,0.3-3.58,1.86c-0.39,1.82-0.02,1.88,2.83,2.06
	c4.52,0.28,5.72,0.51,4.92,4.3c-0.19,0.9-0.44,1.62-0.74,2.2c-1.05,2-2.82,2.31-5.55,2.34c-0.16,0-0.32,0-0.49,0
	c-0.36,0-0.72,0-1.08,0H62.6c3.19,9.33,12.03,16.05,22.44,16.05c13.1,0,23.71-10.62,23.71-23.71c0-1.75-0.2-3.46-0.56-5.1H100.1z"/>
</svg>
