<?xml version="1.0" encoding="UTF-8" standalone="no"?>
<!-- Created with Inkscape (http://www.inkscape.org/) -->

<svg
   version="1.1"
   id="svg2"
   xml:space="preserve"
   width="470"
   height="125"
   viewBox="0 0 470 124.99999"
   sodipodi:docname="SPS_logo_vannrett.svg"
   inkscape:version="1.3.2 (091e20e, 2023-11-25, custom)"
   xmlns:inkscape="http://www.inkscape.org/namespaces/inkscape"
   xmlns:sodipodi="http://sodipodi.sourceforge.net/DTD/sodipodi-0.dtd"
   xmlns="http://www.w3.org/2000/svg"
   xmlns:svg="http://www.w3.org/2000/svg"><defs
     id="defs6"><clipPath
       clipPathUnits="userSpaceOnUse"
       id="clipPath16"><path
         d="M 0,420.945 H 595.276 V 0 H 0 Z"
         id="path14" /></clipPath></defs><sodipodi:namedview
     id="namedview4"
     pagecolor="#ffffff"
     bordercolor="#666666"
     borderopacity="1.0"
     inkscape:pageshadow="2"
     inkscape:pageopacity="0.0"
     inkscape:pagecheckerboard="0"
     inkscape:showpageshadow="2"
     inkscape:deskcolor="#d1d1d1"
     inkscape:zoom="1.4485265"
     inkscape:cx="396.95511"
     inkscape:cy="114.94439"
     inkscape:window-width="1920"
     inkscape:window-height="1009"
     inkscape:window-x="1912"
     inkscape:window-y="-8"
     inkscape:window-maximized="1"
     inkscape:current-layer="layer6"><inkscape:page
       x="0"
       y="0"
       width="470"
       height="124.99999"
       id="page1"
       margin="0 0 0 0"
       bleed="0" /></sodipodi:namedview><g
     inkscape:groupmode="layer"
     id="layer6"
     inkscape:label="Logo"><g
       id="g1"
       transform="translate(-106.71907,-96.195042)"><g
         id="layer1"
         inkscape:label="muligheter"
         style="display:inline"
         transform="matrix(1.3333333,0,0,-1.3333333,9.2206613,386.67081)"><g
           id="g118"
           transform="translate(210.894,152.2529)"><path
             d="m 0,0 h -1.241 l -4.68,14.243 h 1.6 l 3.7,-11.522 3.702,11.522 h 1.6 z"
             style="fill:#e86e24;fill-opacity:1;fill-rule:nonzero;stroke:none"
             id="path120" /></g><path
           d="m 217.533,162.095 h 1.44 v -9.842 h -1.44 z m -0.08,4.421 h 1.621 v -1.62 h -1.621 z"
           style="fill:#e86e24;fill-opacity:1;fill-rule:nonzero;stroke:none"
           id="path122" /><g
           id="g124"
           transform="translate(230.6729,152.1328)"><path
             d="m 0,0 c -1.66,0 -2.96,0.38 -4.041,1.42 l 0.96,0.961 C -2.3,1.561 -1.24,1.24 -0.02,1.24 c 1.621,0 2.621,0.58 2.621,1.74 0,0.861 -0.5,1.341 -1.641,1.441 l -1.62,0.141 c -1.921,0.159 -2.941,1.019 -2.941,2.639 0,1.801 1.521,2.881 3.621,2.881 1.4,0 2.661,-0.34 3.541,-1.06 L 2.621,8.082 C 1.92,8.622 1.021,8.862 0,8.862 c -1.44,0 -2.2,-0.62 -2.2,-1.621 0,-0.84 0.48,-1.34 1.72,-1.439 L 1.101,5.661 c 1.72,-0.16 2.9,-0.82 2.9,-2.66 C 4.001,1.101 2.381,0 0,0"
             style="fill:#e86e24;fill-opacity:1;fill-rule:nonzero;stroke:none"
             id="path126" /></g><g
           id="g128"
           transform="translate(243.9736,152.2529)"><path
             d="m 0,0 -3.121,5.041 -1.92,-2.2 V 0 h -1.44 v 14.243 h 1.44 V 4.721 L -0.6,9.842 H 1.2 L -2.141,6.081 1.78,0 Z"
             style="fill:#e86e24;fill-opacity:1;fill-rule:nonzero;stroke:none"
             id="path130" /></g><g
           id="g132"
           transform="translate(253.793,156.7939)"><path
             d="m 0,0 h -2.76 c -1.481,0 -2.201,-0.601 -2.201,-1.74 0,-1.141 0.7,-1.681 2.261,-1.681 0.84,0 1.58,0.061 2.2,0.66 0.34,0.321 0.5,0.88 0.5,1.7 z m 0,-4.541 v 0.94 c -0.8,-0.8 -1.52,-1.06 -2.84,-1.06 -1.361,0 -2.161,0.26 -2.781,0.9 -0.48,0.481 -0.74,1.22 -0.74,2 0,1.721 1.2,2.841 3.401,2.841 H 0 v 0.941 c 0,1.44 -0.72,2.16 -2.521,2.16 -1.26,0 -1.9,-0.3 -2.48,-1.12 l -0.98,0.9 c 0.88,1.14 1.88,1.46 3.481,1.46 2.64,0 3.94,-1.14 3.94,-3.28 v -6.682 z"
             style="fill:#e86e24;fill-opacity:1;fill-rule:nonzero;stroke:none"
             id="path134" /></g><g
           id="g136"
           transform="translate(262.6523,160.9346)"><path
             d="m 0,0 c -2.141,0 -2.48,-1.84 -2.48,-3.761 0,-1.92 0.339,-3.76 2.48,-3.76 2.141,0 2.46,1.84 2.46,3.76 C 2.46,-1.84 2.141,0 0,0 M 2.701,-7.941 C 2.181,-8.462 1.3,-8.802 0.3,-8.802 c -1.08,0 -1.98,0.26 -2.78,1.281 v -5.562 H -3.921 V 1.16 H -2.48 V 0 c 0.8,1.04 1.7,1.28 2.78,1.28 1,0 1.881,-0.34 2.401,-0.86 1,-1 1.2,-2.641 1.2,-4.181 0,-1.54 -0.2,-3.18 -1.2,-4.18"
             style="fill:#e86e24;fill-opacity:1;fill-rule:nonzero;stroke:none"
             id="path138" /></g><g
           id="g140"
           transform="translate(275.4331,159.5146)"><path
             d="M 0,0 C -0.38,0.9 -1.26,1.48 -2.3,1.48 -3.341,1.48 -4.221,0.9 -4.601,0 c -0.22,-0.54 -0.26,-0.841 -0.3,-1.641 H 0.3 C 0.26,-0.841 0.22,-0.54 0,0 m -4.901,-2.721 c 0,-2.16 1.02,-3.4 2.901,-3.4 1.14,0 1.8,0.34 2.58,1.12 l 0.981,-0.86 c -1.001,-1 -1.921,-1.521 -3.602,-1.521 -2.6,0 -4.3,1.561 -4.3,5.041 0,3.181 1.54,5.041 4.041,5.041 2.54,0 4.04,-1.84 4.04,-4.761 v -0.66 z"
             style="fill:#e86e24;fill-opacity:1;fill-rule:nonzero;stroke:none"
             id="path142" /></g><g
           id="g144"
           transform="translate(285.7329,160.2148)"><path
             d="m 0,0 c -0.541,0.54 -0.94,0.72 -1.701,0.72 -1.44,0 -2.36,-1.14 -2.36,-2.641 v -6.041 h -1.44 V 1.88 h 1.44 V 0.68 C -3.521,1.5 -2.441,2 -1.3,2 -0.36,2 0.36,1.78 1.06,1.08 Z"
             style="fill:#e86e24;fill-opacity:1;fill-rule:nonzero;stroke:none"
             id="path146" /></g><g
           id="g148"
           transform="translate(306.2739,152.2529)"><path
             d="m 0,0 v 6.062 c 0,1.74 -0.94,2.62 -2.421,2.62 -1.439,0 -2.46,-0.901 -2.46,-2.46 V 0 h -1.44 v 6.062 c 0,1.74 -0.94,2.62 -2.421,2.62 -1.48,0 -2.46,-0.901 -2.46,-2.62 V 0 h -1.441 v 9.842 h 1.441 v -1.08 c 0.7,0.801 1.68,1.2 2.781,1.2 1.359,0 2.42,-0.56 3.02,-1.641 0.76,1.081 1.861,1.641 3.241,1.641 1.059,0 1.94,-0.34 2.54,-0.92 C 1.081,8.361 1.44,7.441 1.44,6.302 V 0 Z"
             style="fill:#e86e24;fill-opacity:1;fill-rule:nonzero;stroke:none"
             id="path150" /></g><g
           id="g152"
           transform="translate(317.4321,152.2529)"><path
             d="M 0,0 V 1.101 C -0.7,0.3 -1.681,-0.12 -2.78,-0.12 c -1.061,0 -1.941,0.32 -2.541,0.92 -0.7,0.68 -1,1.621 -1,2.761 v 6.281 h 1.44 V 3.781 c 0,-1.741 0.921,-2.621 2.401,-2.621 1.48,0 2.46,0.901 2.46,2.621 V 9.842 H 1.421 V 0 Z"
             style="fill:#e86e24;fill-opacity:1;fill-rule:nonzero;stroke:none"
             id="path154" /></g><g
           id="g156"
           transform="translate(324.9116,152.2529)"><path
             d="m 0,0 c -1.721,0 -2.5,1.12 -2.5,2.62 v 11.623 h 1.439 V 2.681 C -1.061,1.721 -0.74,1.24 0.26,1.24 H 1.041 V 0 Z"
             style="fill:#e86e24;fill-opacity:1;fill-rule:nonzero;stroke:none"
             id="path158" /></g><path
           d="m 328.391,162.095 h 1.44 v -9.842 h -1.44 z m -0.08,4.421 h 1.62 v -1.62 h -1.62 z"
           style="fill:#e86e24;fill-opacity:1;fill-rule:nonzero;stroke:none"
           id="path160" /><g
           id="g162"
           transform="translate(336.8315,160.9346)"><path
             d="m 0,0 c -2.141,0 -2.461,-1.84 -2.461,-3.681 0,-1.84 0.32,-3.68 2.461,-3.68 2.141,0 2.44,1.84 2.44,3.68 C 2.44,-1.84 2.141,0 0,0 m -0.221,-13.202 c -1.479,0 -2.3,0.38 -3.34,1.32 l 0.94,0.92 c 0.721,-0.641 1.221,-0.98 2.361,-0.98 1.901,0 2.7,1.339 2.7,3.02 v 1.54 c -0.799,-1.019 -1.7,-1.28 -2.76,-1.28 -1,0 -1.861,0.36 -2.381,0.881 -0.98,0.98 -1.199,2.5 -1.199,4.1 0,1.601 0.219,3.121 1.199,4.101 0.52,0.52 1.4,0.86 2.4,0.86 C 0.78,1.28 1.66,1.04 2.461,0 v 1.16 h 1.42 V -8.981 c 0,-2.441 -1.521,-4.221 -4.102,-4.221"
             style="fill:#e86e24;fill-opacity:1;fill-rule:nonzero;stroke:none"
             id="path164" /></g><g
           id="g166"
           transform="translate(350.6128,152.2529)"><path
             d="m 0,0 v 6.081 c 0,1.721 -0.92,2.601 -2.4,2.601 -1.481,0 -2.461,-0.901 -2.461,-2.601 V 0 h -1.441 v 14.243 h 1.441 V 8.762 c 0.72,0.82 1.66,1.2 2.76,1.2 2.22,0 3.54,-1.42 3.54,-3.641 V 0 Z"
             style="fill:#e86e24;fill-opacity:1;fill-rule:nonzero;stroke:none"
             id="path168" /></g><g
           id="g170"
           transform="translate(361.3521,159.5146)"><path
             d="M 0,0 C -0.38,0.9 -1.261,1.48 -2.3,1.48 -3.341,1.48 -4.221,0.9 -4.601,0 -4.821,-0.54 -4.86,-0.841 -4.901,-1.641 H 0.3 C 0.261,-0.841 0.22,-0.54 0,0 m -4.901,-2.721 c 0,-2.16 1.02,-3.4 2.9,-3.4 1.141,0 1.801,0.34 2.581,1.12 l 0.981,-0.86 c -1.001,-1 -1.921,-1.521 -3.601,-1.521 -2.602,0 -4.301,1.561 -4.301,5.041 0,3.181 1.54,5.041 4.041,5.041 2.54,0 4.04,-1.84 4.04,-4.761 v -0.66 z"
             style="fill:#e86e24;fill-opacity:1;fill-rule:nonzero;stroke:none"
             id="path172" /></g><g
           id="g174"
           transform="translate(368.9116,152.2529)"><path
             d="m 0,0 c -1.681,0 -2.521,1.181 -2.521,2.641 v 6.041 h -1.24 v 1.1 h 1.24 v 3.08 h 1.441 v -3.08 h 2.1 v -1.1 h -2.1 V 2.681 C -1.08,1.78 -0.66,1.24 0.26,1.24 H 1.02 V 0 Z"
             style="fill:#e86e24;fill-opacity:1;fill-rule:nonzero;stroke:none"
             id="path176" /></g><g
           id="g178"
           transform="translate(378.4312,159.5146)"><path
             d="M 0,0 C -0.379,0.9 -1.26,1.48 -2.3,1.48 -3.34,1.48 -4.221,0.9 -4.601,0 -4.82,-0.54 -4.86,-0.841 -4.9,-1.641 H 0.301 C 0.261,-0.841 0.221,-0.54 0,0 m -4.9,-2.721 c 0,-2.16 1.019,-3.4 2.9,-3.4 1.141,0 1.801,0.34 2.58,1.12 l 0.981,-0.86 c -1,-1 -1.92,-1.521 -3.601,-1.521 -2.601,0 -4.301,1.561 -4.301,5.041 0,3.181 1.54,5.041 4.041,5.041 2.54,0 4.04,-1.84 4.04,-4.761 v -0.66 z"
             style="fill:#e86e24;fill-opacity:1;fill-rule:nonzero;stroke:none"
             id="path180" /></g><g
           id="g182"
           transform="translate(388.7319,160.2148)"><path
             d="m 0,0 c -0.541,0.54 -0.94,0.72 -1.701,0.72 -1.44,0 -2.36,-1.14 -2.36,-2.641 V -7.962 H -5.502 V 1.88 h 1.441 V 0.68 C -3.521,1.5 -2.441,2 -1.301,2 -0.36,2 0.359,1.78 1.061,1.08 Z"
             style="fill:#e86e24;fill-opacity:1;fill-rule:nonzero;stroke:none"
             id="path184" /></g></g><g
         id="layer2"
         inkscape:label="navn"
         transform="matrix(1.3333333,0,0,-1.3333333,9.6649943,390.05153)"><g
           id="g18"
           transform="translate(179.8437,177.2236)"><path
             d="m 0,0 c -2.888,0 -4.777,0.729 -6.586,2.537 l 1.403,1.404 c 1.593,-1.592 3.078,-2.105 5.237,-2.105 2.807,0 4.535,1.322 4.535,3.562 0,0.999 -0.297,1.863 -0.918,2.403 -0.621,0.54 -1.107,0.702 -2.51,0.918 l -2.241,0.35 c -1.511,0.244 -2.699,0.73 -3.536,1.458 -0.971,0.865 -1.457,2.052 -1.457,3.59 0,3.267 2.348,5.426 6.154,5.426 2.457,0 4.076,-0.621 5.723,-2.106 L 4.481,16.115 C 3.293,17.194 2.025,17.762 0,17.762 c -2.564,0 -4.049,-1.431 -4.049,-3.564 0,-0.944 0.27,-1.7 0.864,-2.213 0.594,-0.513 1.593,-0.891 2.591,-1.052 L 1.512,10.608 C 3.32,10.339 4.211,9.961 5.021,9.259 6.074,8.368 6.641,7.045 6.641,5.453 6.641,2.078 3.995,0 0,0"
             style="fill:#231f20;fill-opacity:1;fill-rule:nonzero;stroke:none"
             id="path20" /></g><g
           id="g22"
           transform="translate(197.9604,183.5127)"><path
             d="m 0,0 h -3.725 c -1.998,0 -2.969,-0.81 -2.969,-2.348 0,-1.539 0.944,-2.267 3.05,-2.267 1.134,0 2.132,0.081 2.969,0.89 C -0.216,-3.293 0,-2.537 0,-1.431 Z m 0,-6.127 v 1.269 c -1.08,-1.08 -2.052,-1.431 -3.833,-1.431 -1.835,0 -2.916,0.351 -3.752,1.215 -0.648,0.647 -0.999,1.646 -0.999,2.699 0,2.321 1.62,3.833 4.589,3.833 H 0 v 1.269 c 0,1.943 -0.972,2.915 -3.401,2.915 -1.701,0 -2.564,-0.405 -3.348,-1.512 l -1.322,1.215 c 1.188,1.539 2.537,1.97 4.697,1.97 3.563,0 5.317,-1.538 5.317,-4.426 v -9.016 z"
             style="fill:#231f20;fill-opacity:1;fill-rule:nonzero;stroke:none"
             id="path24" /></g><g
           id="g26"
           transform="translate(213.1338,177.3857)"><path
             d="m 0,0 v 8.179 c 0,2.348 -1.269,3.536 -3.266,3.536 -1.998,0 -3.293,-1.215 -3.293,-3.536 V 0 h -1.944 v 13.28 h 1.944 v -1.457 c 0.944,1.079 2.24,1.619 3.725,1.619 1.43,0 2.591,-0.431 3.401,-1.241 0.945,-0.918 1.376,-2.16 1.376,-3.698 L 1.943,0 Z"
             style="fill:#231f20;fill-opacity:1;fill-rule:nonzero;stroke:none"
             id="path28" /></g><g
           id="g30"
           transform="translate(224.3936,189.1006)"><path
             d="m 0,0 c -2.888,0 -3.347,-2.483 -3.347,-5.074 0,-2.592 0.459,-5.075 3.347,-5.075 2.888,0 3.32,2.483 3.32,5.075 C 3.32,-2.483 2.888,0 0,0 m 3.347,-11.715 v 1.593 c -1.079,-1.404 -2.321,-1.755 -3.779,-1.755 -1.349,0 -2.537,0.459 -3.239,1.161 -1.35,1.35 -1.62,3.563 -1.62,5.642 0,2.078 0.27,4.291 1.62,5.64 0.702,0.703 1.89,1.162 3.239,1.162 1.458,0 2.672,-0.325 3.752,-1.701 v 7.477 h 1.944 v -19.219 z"
             style="fill:#231f20;fill-opacity:1;fill-rule:nonzero;stroke:none"
             id="path32" /></g><g
           id="g34"
           transform="translate(243.0225,177.3857)"><path
             d="m 0,0 v 8.179 c 0,2.348 -1.269,3.536 -3.266,3.536 -1.998,0 -3.293,-1.215 -3.293,-3.536 V 0 h -1.944 v 13.28 h 1.944 v -1.457 c 0.944,1.079 2.24,1.619 3.725,1.619 1.43,0 2.591,-0.431 3.401,-1.241 0.945,-0.918 1.376,-2.16 1.376,-3.698 L 1.943,0 Z"
             style="fill:#231f20;fill-opacity:1;fill-rule:nonzero;stroke:none"
             id="path36" /></g><g
           id="g38"
           transform="translate(257.5215,187.1846)"><path
             d="M 0,0 C -0.513,1.214 -1.701,1.997 -3.104,1.997 -4.508,1.997 -5.695,1.214 -6.208,0 -6.505,-0.729 -6.559,-1.134 -6.613,-2.214 H 0.405 C 0.351,-1.134 0.297,-0.729 0,0 m -6.613,-3.672 c 0,-2.915 1.376,-4.588 3.914,-4.588 1.538,0 2.429,0.458 3.482,1.511 l 1.322,-1.16 c -1.349,-1.35 -2.591,-2.052 -4.858,-2.052 -3.509,0 -5.804,2.106 -5.804,6.803 0,4.291 2.078,6.802 5.453,6.802 3.428,0 5.452,-2.484 5.452,-6.424 v -0.892 z"
             style="fill:#231f20;fill-opacity:1;fill-rule:nonzero;stroke:none"
             id="path40" /></g><g
           id="g42"
           transform="translate(268.1875,177.2236)"><path
             d="m 0,0 c -2.24,0 -3.995,0.513 -5.453,1.917 l 1.296,1.295 c 1.053,-1.107 2.483,-1.538 4.13,-1.538 2.186,0 3.536,0.782 3.536,2.348 0,1.161 -0.675,1.809 -2.214,1.944 l -2.186,0.188 c -2.591,0.216 -3.968,1.377 -3.968,3.564 0,2.428 2.052,3.886 4.886,3.886 1.89,0 3.59,-0.458 4.778,-1.43 L 3.536,10.905 C 2.591,11.634 1.376,11.958 0,11.958 c -1.943,0 -2.969,-0.837 -2.969,-2.187 0,-1.133 0.648,-1.808 2.321,-1.943 L 1.484,7.639 C 3.806,7.423 5.398,6.532 5.398,4.049 5.398,1.484 3.212,0 0,0"
             style="fill:#231f20;fill-opacity:1;fill-rule:nonzero;stroke:none"
             id="path44" /></g><g
           id="g46"
           transform="translate(291.4336,194.7695)"><path
             d="M 0,0 H -4.913 V -7.64 H 0 c 2.402,0 4.076,1.296 4.076,3.833 C 4.076,-1.27 2.402,0 0,0 m 0.189,-9.475 h -5.102 v -7.909 H -6.964 V 1.835 h 7.153 c 3.509,0 5.938,-2.187 5.938,-5.642 0,-3.455 -2.429,-5.668 -5.938,-5.668"
             style="fill:#231f20;fill-opacity:1;fill-rule:nonzero;stroke:none"
             id="path48" /></g><g
           id="g50"
           transform="translate(308.5503,188.1289)"><path
             d="m 0,0 c -0.729,0.729 -1.269,0.972 -2.294,0.972 -1.943,0 -3.185,-1.538 -3.185,-3.564 v -8.151 h -1.944 v 13.28 h 1.944 V 0.918 c 0.729,1.106 2.186,1.781 3.725,1.781 1.269,0 2.24,-0.297 3.186,-1.241 z"
             style="fill:#231f20;fill-opacity:1;fill-rule:nonzero;stroke:none"
             id="path52" /></g><g
           id="g54"
           transform="translate(318.73,188.1289)"><path
             d="m 0,0 c -0.621,0.621 -1.485,0.972 -2.43,0.972 -0.945,0 -1.781,-0.351 -2.402,-0.972 -0.973,-0.972 -1.08,-2.618 -1.08,-4.103 0,-1.485 0.107,-3.131 1.08,-4.103 0.621,-0.621 1.457,-0.972 2.402,-0.972 0.945,0 1.809,0.351 2.43,0.972 0.971,0.972 1.053,2.618 1.053,4.103 C 1.053,-2.618 0.971,-0.972 0,0 m 1.376,-9.394 c -0.917,-0.918 -2.187,-1.511 -3.806,-1.511 -1.619,0 -2.888,0.593 -3.806,1.511 -1.35,1.377 -1.619,3.24 -1.619,5.291 0,2.051 0.269,3.914 1.619,5.29 0.918,0.918 2.187,1.512 3.806,1.512 1.619,0 2.889,-0.594 3.806,-1.512 1.35,-1.376 1.62,-3.239 1.62,-5.29 0,-2.051 -0.27,-3.914 -1.62,-5.291"
             style="fill:#231f20;fill-opacity:1;fill-rule:nonzero;stroke:none"
             id="path56" /></g><path
           d="m 325.508,185.564 h 7.396 v -1.809 h -7.396 z"
           style="fill:#231f20;fill-opacity:1;fill-rule:nonzero;stroke:none"
           id="path58" /><g
           id="g60"
           transform="translate(342.6792,177.2236)"><path
             d="m 0,0 c -2.889,0 -4.777,0.729 -6.586,2.537 l 1.402,1.404 c 1.594,-1.592 3.079,-2.105 5.238,-2.105 2.807,0 4.534,1.322 4.534,3.562 0,0.999 -0.297,1.863 -0.917,2.403 C 3.05,8.341 2.564,8.503 1.16,8.719 l -2.24,0.35 c -1.512,0.244 -2.699,0.73 -3.536,1.458 -0.972,0.865 -1.458,2.052 -1.458,3.59 0,3.267 2.349,5.426 6.154,5.426 2.457,0 4.076,-0.621 5.723,-2.106 L 4.48,16.115 C 3.293,17.194 2.024,17.762 0,17.762 c -2.564,0 -4.049,-1.431 -4.049,-3.564 0,-0.944 0.27,-1.7 0.863,-2.213 0.594,-0.513 1.593,-0.891 2.592,-1.052 L 1.512,10.608 C 3.32,10.339 4.211,9.961 5.021,9.259 6.073,8.368 6.641,7.045 6.641,5.453 6.641,2.078 3.994,0 0,0"
             style="fill:#231f20;fill-opacity:1;fill-rule:nonzero;stroke:none"
             id="path62" /></g><g
           id="g64"
           transform="translate(361.0923,187.1846)"><path
             d="M 0,0 C -0.513,1.214 -1.7,1.997 -3.104,1.997 -4.508,1.997 -5.695,1.214 -6.208,0 -6.505,-0.729 -6.56,-1.134 -6.613,-2.214 H 0.405 C 0.351,-1.134 0.297,-0.729 0,0 m -6.613,-3.672 c 0,-2.915 1.376,-4.588 3.914,-4.588 1.538,0 2.428,0.458 3.481,1.511 l 1.323,-1.16 c -1.349,-1.35 -2.59,-2.052 -4.858,-2.052 -3.51,0 -5.804,2.106 -5.804,6.803 0,4.291 2.078,6.802 5.453,6.802 3.427,0 5.453,-2.484 5.453,-6.424 v -0.892 z"
             style="fill:#231f20;fill-opacity:1;fill-rule:nonzero;stroke:none"
             id="path66" /></g><g
           id="g68"
           transform="translate(374.9976,188.1289)"><path
             d="m 0,0 c -0.729,0.729 -1.27,0.972 -2.295,0.972 -1.943,0 -3.184,-1.538 -3.184,-3.564 v -8.151 h -1.945 v 13.28 h 1.945 V 0.918 c 0.728,1.106 2.186,1.781 3.724,1.781 1.269,0 2.241,-0.297 3.186,-1.241 z"
             style="fill:#231f20;fill-opacity:1;fill-rule:nonzero;stroke:none"
             id="path70" /></g><g
           id="g72"
           transform="translate(383.395,177.3857)"><path
             d="m 0,0 h -1.728 l -4.859,13.28 h 2.106 L -0.864,2.618 2.78,13.28 h 2.106 z"
             style="fill:#231f20;fill-opacity:1;fill-rule:nonzero;stroke:none"
             id="path74" /></g><path
           d="m 391.009,190.666 h 1.944 v -13.28 h -1.944 z m -0.107,5.966 h 2.187 v -2.187 h -2.187 z"
           style="fill:#231f20;fill-opacity:1;fill-rule:nonzero;stroke:none"
           id="path76" /><g
           id="g78"
           transform="translate(402.9956,177.2236)"><path
             d="m 0,0 c -3.347,0 -5.884,2.268 -5.884,6.803 0,4.534 2.537,6.801 5.884,6.801 1.836,0 2.996,-0.486 4.373,-1.97 L 3.051,10.393 C 2.052,11.499 1.27,11.877 0,11.877 c -1.295,0 -2.375,-0.513 -3.076,-1.512 C -3.697,9.502 -3.94,8.476 -3.94,6.803 -3.94,5.129 -3.697,4.104 -3.076,3.239 -2.375,2.24 -1.295,1.728 0,1.728 c 1.27,0 2.052,0.405 3.051,1.511 L 4.373,1.971 C 2.996,0.486 1.836,0 0,0"
             style="fill:#231f20;fill-opacity:1;fill-rule:nonzero;stroke:none"
             id="path80" /></g><g
           id="g82"
           transform="translate(418.4927,187.1846)"><path
             d="M 0,0 C -0.513,1.214 -1.7,1.997 -3.104,1.997 -4.508,1.997 -5.695,1.214 -6.208,0 -6.505,-0.729 -6.559,-1.134 -6.613,-2.214 H 0.405 C 0.352,-1.134 0.297,-0.729 0,0 m -6.613,-3.672 c 0,-2.915 1.377,-4.588 3.914,-4.588 1.539,0 2.429,0.458 3.482,1.511 l 1.322,-1.16 c -1.349,-1.35 -2.59,-2.052 -4.858,-2.052 -3.509,0 -5.803,2.106 -5.803,6.803 0,4.291 2.078,6.802 5.452,6.802 3.428,0 5.453,-2.484 5.453,-6.424 v -0.892 z"
             style="fill:#231f20;fill-opacity:1;fill-rule:nonzero;stroke:none"
             id="path84" /></g></g></g><g
       id="layer3"
       inkscape:label="Logo"
       style="display:inline"
       transform="matrix(1.3333333,0,0,-1.3333333,-334.53679,398.44346)"><g
         id="g86"
         transform="translate(325.2896,261.4531)"><path
           d="m 0,0 h -0.692 c -5.09,-0.014 -6.039,-0.557 -6.659,-3.468 -0.72,-3.396 -0.043,-3.506 5.274,-3.838 8.416,-0.517 10.646,-0.959 9.147,-8.007 -0.356,-1.673 -0.811,-3.018 -1.38,-4.098 -1.959,-3.722 -5.247,-4.295 -10.317,-4.347 -0.299,-0.002 -0.601,-0.006 -0.912,-0.006 -0.678,0 -1.347,-0.002 -2.003,0.006 l -34.002,0.216 0.88,4.131 3.7,17.411 5.312,-0.007 -3.699,-17.404 h 30.545 0.192 0.057 c 4.785,0.01 5.633,0.902 6.313,4.098 0.839,3.949 -1.374,3.431 -5.458,3.654 -5.902,0.37 -10.672,0.147 -8.962,8.191 0.296,1.387 0.699,2.53 1.201,3.468 2.058,3.854 5.781,4.303 10.567,4.349 0.435,0.005 0.882,0.007 1.334,0.007 0.405,0 0.798,-0.002 1.189,-0.007 h 12.251 c -5.807,17.585 -22.363,30.277 -41.894,30.277 -24.367,0 -44.121,-19.753 -44.121,-44.12 0,-3.412 0.4,-6.727 1.133,-9.917 h 16.049 0.193 0.058 c 4.781,0.01 5.631,0.902 6.312,4.098 0.84,3.949 -1.374,3.431 -5.461,3.654 -5.898,0.37 -10.67,0.147 -8.958,8.191 0.294,1.387 0.699,2.53 1.201,3.468 2.056,3.854 5.78,4.303 10.565,4.349 0.436,0.005 0.881,0.007 1.335,0.007 0.401,0 0.798,-0.002 1.187,-0.007 h -2.522 l 27.636,-0.215 c 5.232,0 7.789,-0.893 8.265,-4.134 0.202,-1.354 0.048,-3.104 -0.435,-5.388 -1.665,-7.821 -4.574,-9.187 -11.807,-9.187 h -5.237 l 0.912,4.54 h 5.29 c 3.817,0.071 4.702,0.773 5.525,4.647 0.831,3.914 0.516,5.019 -3.478,4.983 L -50.149,0 h -0.693 c -5.087,-0.014 -6.037,-0.557 -6.655,-3.468 -0.724,-3.396 -0.045,-3.506 5.273,-3.838 8.413,-0.517 10.644,-0.959 9.146,-8.007 -0.356,-1.673 -0.814,-3.018 -1.381,-4.098 -1.959,-3.722 -5.248,-4.295 -10.318,-4.347 -0.297,-0.002 -0.599,-0.006 -0.909,-0.006 -0.678,0 -1.348,-0.002 -2.003,0.006 h -12.078 c 5.931,-17.365 22.377,-29.859 41.751,-29.859 24.369,0 44.122,19.754 44.122,44.123 0,3.26 -0.363,6.434 -1.035,9.494 z"
           style="fill:#e86e24;fill-opacity:1;fill-rule:nonzero;stroke:none"
           id="path88" /></g><g
         id="g90"
         transform="translate(275.5796,265.8086)"><path
           d="M 0,0 C -0.454,0 -0.899,-0.001 -1.335,-0.006 H 1.187 C 0.798,-0.001 0.401,0 0,0"
           style="fill:#ffffff;fill-opacity:1;fill-rule:nonzero;stroke:none"
           id="path92" /></g><g
         id="g94"
         transform="translate(325.728,265.8086)"><path
           d="M 0,0 C -0.453,0 -0.898,-0.001 -1.334,-0.006 H 1.188 C 0.797,-0.001 0.403,0 0,0"
           style="fill:#ffffff;fill-opacity:1;fill-rule:nonzero;stroke:none"
           id="path96" /></g><g
         id="g98"
         transform="translate(319.7515,237.6895)"><path
           d="M 0,0 C 0.312,0 0.612,0.004 0.911,0.006 H -2.004 C -1.348,-0.002 -0.679,0 0,0"
           style="fill:#ffffff;fill-opacity:1;fill-rule:nonzero;stroke:none"
           id="path100" /></g><g
         id="g102"
         transform="translate(324.5972,261.4531)"><path
           d="M 0,0 H 0.692 C 0.532,0 0.373,0.001 0.204,0.001 0.135,0.001 0.068,0 0,0"
           style="fill:#ffffff;fill-opacity:1;fill-rule:nonzero;stroke:none"
           id="path104" /></g><g
         id="g106"
         transform="translate(274.4478,261.4531)"><path
           d="M 0,0 H 0.693 C 0.534,0 0.376,0.001 0.206,0.001 0.133,0.001 0.071,0 0,0"
           style="fill:#ffffff;fill-opacity:1;fill-rule:nonzero;stroke:none"
           id="path108" /></g><g
         id="g110"
         transform="translate(269.6035,237.6895)"><path
           d="m 0,0 c 0.31,0 0.612,0.004 0.909,0.006 5.071,0.052 8.36,0.625 10.319,4.348 0.566,1.08 1.024,2.423 1.381,4.098 1.498,7.047 -0.734,7.488 -9.147,8.006 -5.317,0.332 -5.997,0.441 -5.273,3.839 0.618,2.91 1.568,3.453 6.655,3.467 0.071,0 0.133,0.001 0.207,0.001 0.169,0 0.327,-0.001 0.487,-0.001 l 25.774,-0.406 c 3.994,0.037 4.31,-1.068 3.48,-4.982 -0.824,-3.874 -1.71,-4.576 -5.527,-4.647 h -5.29 L 23.063,9.188 H 28.3 c 7.232,0 10.143,1.367 11.807,9.188 0.484,2.282 0.638,4.034 0.435,5.388 -0.476,3.241 -3.033,4.133 -8.265,4.133 L 4.641,28.112 c -4.785,-0.046 -8.509,-0.496 -10.565,-4.348 -0.502,-0.94 -0.907,-2.081 -1.201,-3.467 -1.712,-8.045 3.06,-7.822 8.959,-8.193 4.086,-0.222 6.3,0.295 5.46,-3.652 C 6.613,5.255 5.764,4.362 0.982,4.354 H 0.924 0.731 -15.318 c 0.34,-1.479 0.753,-2.929 1.237,-4.348 H -2.003 C -1.348,-0.002 -0.678,0 0,0"
           style="fill:#ffffff;fill-opacity:1;fill-rule:nonzero;stroke:none"
           id="path112" /></g><g
         id="g114"
         transform="translate(324.394,265.8027)"><path
           d="m 0,0 c -4.787,-0.047 -8.51,-0.496 -10.566,-4.35 -0.502,-0.938 -0.907,-2.081 -1.202,-3.467 -1.711,-8.044 3.059,-7.823 8.961,-8.192 4.084,-0.222 6.297,0.294 5.459,-3.653 -0.679,-3.197 -1.529,-4.088 -6.313,-4.099 H -3.719 -3.91 -34.456 l 3.7,17.405 -5.312,0.006 -3.701,-17.411 -0.88,-4.131 34.003,-0.215 h 2.914 c 5.07,0.051 8.358,0.624 10.317,4.346 0.569,1.08 1.024,2.426 1.381,4.099 1.499,7.048 -0.732,7.489 -9.148,8.007 -5.316,0.332 -5.995,0.441 -5.272,3.838 0.619,2.91 1.568,3.454 6.657,3.467 0.068,0 0.134,10e-4 0.205,10e-4 0.169,0 0.326,-10e-4 0.488,-10e-4 H 15.967 C 15.643,-2.87 15.243,-1.42 14.773,0 H 2.523 Z"
           style="fill:#ffffff;fill-opacity:1;fill-rule:nonzero;stroke:none"
           id="path116" /></g></g></g><g
     inkscape:groupmode="layer"
     id="layer7"
     inkscape:label="Ramme"><rect
       style="fill:#fafafa;stroke-width:1.00917;opacity:0"
       id="rect1"
       width="470"
       height="125"
       x="0"
       y="0" /></g></svg>
