<?xml version="1.0" encoding="UTF-8" standalone="no"?>
<!-- Created with Inkscape (http://www.inkscape.org/) -->

<svg
   version="1.1"
   id="svg2"
   xml:space="preserve"
   width="125"
   height="125"
   viewBox="0 0 125 124.99999"
   sodipodi:docname="SPS_logo_farge.svg"
   inkscape:version="1.4 (86a8ad7, 2024-10-11)"
   inkscape:export-filename="SPS_logo_farge_700px.png"
   inkscape:export-xdpi="537.59998"
   inkscape:export-ydpi="537.59998"
   xmlns:inkscape="http://www.inkscape.org/namespaces/inkscape"
   xmlns:sodipodi="http://sodipodi.sourceforge.net/DTD/sodipodi-0.dtd"
   xmlns="http://www.w3.org/2000/svg"
   xmlns:svg="http://www.w3.org/2000/svg"><defs
     id="defs6"><clipPath
       clipPathUnits="userSpaceOnUse"
       id="clipPath16"><path
         d="M 0,420.945 H 595.276 V 0 H 0 Z"
         id="path14" /></clipPath></defs><sodipodi:namedview
     id="namedview4"
     pagecolor="#ffffff"
     bordercolor="#666666"
     borderopacity="1.0"
     inkscape:pageshadow="2"
     inkscape:pageopacity="0.0"
     inkscape:pagecheckerboard="0"
     inkscape:showpageshadow="2"
     inkscape:deskcolor="#d1d1d1"
     inkscape:zoom="4.0970516"
     inkscape:cx="60.409295"
     inkscape:cy="84.817091"
     inkscape:window-width="1920"
     inkscape:window-height="1009"
     inkscape:window-x="1912"
     inkscape:window-y="-8"
     inkscape:window-maximized="1"
     inkscape:current-layer="layer6"><inkscape:page
       x="0"
       y="0"
       width="125"
       height="124.99999"
       id="page1"
       margin="0"
       bleed="0" /></sodipodi:namedview><g
     inkscape:groupmode="layer"
     id="layer6"
     inkscape:label="Logo"><g
       id="layer3"
       inkscape:label="Logo"
       style="display:inline"
       transform="matrix(1.3333333,0,0,-1.3333333,-333.86546,398.44346)"><g
         id="g86"
         transform="translate(325.2896,261.4531)"><path
           d="m 0,0 h -0.692 c -5.09,-0.014 -6.039,-0.557 -6.659,-3.468 -0.72,-3.396 -0.043,-3.506 5.274,-3.838 8.416,-0.517 10.646,-0.959 9.147,-8.007 -0.356,-1.673 -0.811,-3.018 -1.38,-4.098 -1.959,-3.722 -5.247,-4.295 -10.317,-4.347 -0.299,-0.002 -0.601,-0.006 -0.912,-0.006 -0.678,0 -1.347,-0.002 -2.003,0.006 l -34.002,0.216 0.88,4.131 3.7,17.411 5.312,-0.007 -3.699,-17.404 h 30.545 0.192 0.057 c 4.785,0.01 5.633,0.902 6.313,4.098 0.839,3.949 -1.374,3.431 -5.458,3.654 -5.902,0.37 -10.672,0.147 -8.962,8.191 0.296,1.387 0.699,2.53 1.201,3.468 2.058,3.854 5.781,4.303 10.567,4.349 0.435,0.005 0.882,0.007 1.334,0.007 0.405,0 0.798,-0.002 1.189,-0.007 h 12.251 c -5.807,17.585 -22.363,30.277 -41.894,30.277 -24.367,0 -44.121,-19.753 -44.121,-44.12 0,-3.412 0.4,-6.727 1.133,-9.917 h 16.049 0.193 0.058 c 4.781,0.01 5.631,0.902 6.312,4.098 0.84,3.949 -1.374,3.431 -5.461,3.654 -5.898,0.37 -10.67,0.147 -8.958,8.191 0.294,1.387 0.699,2.53 1.201,3.468 2.056,3.854 5.78,4.303 10.565,4.349 0.436,0.005 0.881,0.007 1.335,0.007 0.401,0 0.798,-0.002 1.187,-0.007 h -2.522 l 27.636,-0.215 c 5.232,0 7.789,-0.893 8.265,-4.134 0.202,-1.354 0.048,-3.104 -0.435,-5.388 -1.665,-7.821 -4.574,-9.187 -11.807,-9.187 h -5.237 l 0.912,4.54 h 5.29 c 3.817,0.071 4.702,0.773 5.525,4.647 0.831,3.914 0.516,5.019 -3.478,4.983 L -50.149,0 h -0.693 c -5.087,-0.014 -6.037,-0.557 -6.655,-3.468 -0.724,-3.396 -0.045,-3.506 5.273,-3.838 8.413,-0.517 10.644,-0.959 9.146,-8.007 -0.356,-1.673 -0.814,-3.018 -1.381,-4.098 -1.959,-3.722 -5.248,-4.295 -10.318,-4.347 -0.297,-0.002 -0.599,-0.006 -0.909,-0.006 -0.678,0 -1.348,-0.002 -2.003,0.006 h -12.078 c 5.931,-17.365 22.377,-29.859 41.751,-29.859 24.369,0 44.122,19.754 44.122,44.123 0,3.26 -0.363,6.434 -1.035,9.494 z"
           style="fill:#e86e24;fill-opacity:1;fill-rule:nonzero;stroke:none"
           id="path88" /></g><g
         id="g90"
         transform="translate(275.5796,265.8086)"><path
           d="M 0,0 C -0.454,0 -0.899,-0.001 -1.335,-0.006 H 1.187 C 0.798,-0.001 0.401,0 0,0"
           style="fill:#ffffff;fill-opacity:1;fill-rule:nonzero;stroke:none"
           id="path92" /></g><g
         id="g94"
         transform="translate(325.728,265.8086)"><path
           d="M 0,0 C -0.453,0 -0.898,-0.001 -1.334,-0.006 H 1.188 C 0.797,-0.001 0.403,0 0,0"
           style="fill:#ffffff;fill-opacity:1;fill-rule:nonzero;stroke:none"
           id="path96" /></g><g
         id="g98"
         transform="translate(319.7515,237.6895)"><path
           d="M 0,0 C 0.312,0 0.612,0.004 0.911,0.006 H -2.004 C -1.348,-0.002 -0.679,0 0,0"
           style="fill:#ffffff;fill-opacity:1;fill-rule:nonzero;stroke:none"
           id="path100" /></g><g
         id="g102"
         transform="translate(324.5972,261.4531)"><path
           d="M 0,0 H 0.692 C 0.532,0 0.373,0.001 0.204,0.001 0.135,0.001 0.068,0 0,0"
           style="fill:#ffffff;fill-opacity:1;fill-rule:nonzero;stroke:none"
           id="path104" /></g><g
         id="g106"
         transform="translate(274.4478,261.4531)"><path
           d="M 0,0 H 0.693 C 0.534,0 0.376,0.001 0.206,0.001 0.133,0.001 0.071,0 0,0"
           style="fill:#ffffff;fill-opacity:1;fill-rule:nonzero;stroke:none"
           id="path108" /></g><g
         id="g110"
         transform="translate(269.6035,237.6895)"><path
           d="m 0,0 c 0.31,0 0.612,0.004 0.909,0.006 5.071,0.052 8.36,0.625 10.319,4.348 0.566,1.08 1.024,2.423 1.381,4.098 1.498,7.047 -0.734,7.488 -9.147,8.006 -5.317,0.332 -5.997,0.441 -5.273,3.839 0.618,2.91 1.568,3.453 6.655,3.467 0.071,0 0.133,0.001 0.207,0.001 0.169,0 0.327,-0.001 0.487,-0.001 l 25.774,-0.406 c 3.994,0.037 4.31,-1.068 3.48,-4.982 -0.824,-3.874 -1.71,-4.576 -5.527,-4.647 h -5.29 L 23.063,9.188 H 28.3 c 7.232,0 10.143,1.367 11.807,9.188 0.484,2.282 0.638,4.034 0.435,5.388 -0.476,3.241 -3.033,4.133 -8.265,4.133 L 4.641,28.112 c -4.785,-0.046 -8.509,-0.496 -10.565,-4.348 -0.502,-0.94 -0.907,-2.081 -1.201,-3.467 -1.712,-8.045 3.06,-7.822 8.959,-8.193 4.086,-0.222 6.3,0.295 5.46,-3.652 C 6.613,5.255 5.764,4.362 0.982,4.354 H 0.924 0.731 -15.318 c 0.34,-1.479 0.753,-2.929 1.237,-4.348 H -2.003 C -1.348,-0.002 -0.678,0 0,0"
           style="fill:#ffffff;fill-opacity:1;fill-rule:nonzero;stroke:none"
           id="path112" /></g><g
         id="g114"
         transform="translate(324.394,265.8027)"><path
           d="m 0,0 c -4.787,-0.047 -8.51,-0.496 -10.566,-4.35 -0.502,-0.938 -0.907,-2.081 -1.202,-3.467 -1.711,-8.044 3.059,-7.823 8.961,-8.192 4.084,-0.222 6.297,0.294 5.459,-3.653 -0.679,-3.197 -1.529,-4.088 -6.313,-4.099 H -3.719 -3.91 -34.456 l 3.7,17.405 -5.312,0.006 -3.701,-17.411 -0.88,-4.131 34.003,-0.215 h 2.914 c 5.07,0.051 8.358,0.624 10.317,4.346 0.569,1.08 1.024,2.426 1.381,4.099 1.499,7.048 -0.732,7.489 -9.148,8.007 -5.316,0.332 -5.995,0.441 -5.272,3.838 0.619,2.91 1.568,3.454 6.657,3.467 0.068,0 0.134,10e-4 0.205,10e-4 0.169,0 0.326,-10e-4 0.488,-10e-4 H 15.967 C 15.643,-2.87 15.243,-1.42 14.773,0 H 2.523 Z"
           style="fill:#ffffff;fill-opacity:1;fill-rule:nonzero;stroke:none"
           id="path116" /></g></g></g><g
     inkscape:groupmode="layer"
     id="layer7"
     inkscape:label="Ramme"><rect
       style="display:inline;opacity:0;fill:#fafafa;stroke-width:0.519156"
       id="rect1"
       width="124.14153"
       height="125.24408"
       x="-0.0051248278"
       y="0.22314242" /></g></svg>
